0
SECTION
2
HEADER
9
$INSUNITS
70
4
9
$ACADVER
1
AC1014
9
$HANDSEED
5
FFFF
0
ENDSEC
0
SECTION
2
TABLES
0
TABLE
2
VPORT
5
8
100
AcDbSymbolTable
0
ENDTAB
0
TABLE
2
LTYPE
5
5
100
AcDbSymbolTable
0
LTYPE
5
14
100
AcDbSymbolTableRecord
100
AcDbLinetypeTableRecord
2
BYBLOCK
70
0
0
LTYPE
5
15
100
AcDbSymbolTableRecord
100
AcDbLinetypeTableRecord
2
BYLAYER
70
0
0
ENDTAB
0
TABLE
2
LAYER
5
2
100
AcDbSymbolTable
70
2
0
LAYER
5
50
100
AcDbSymbolTableRecord
100
AcDbLayerTableRecord
2
0
70
0
6
CONTINUOUS
0
ENDTAB
0
TABLE
2
STYLE
5
3
100
AcDbSymbolTable
70
1
0
STYLE
5
11
100
AcDbSymbolTableRecord
100
AcDbTextStyleTableRecord
2
STANDARD
70
0
0
ENDTAB
0
TABLE
2
VIEW
5
6
100
AcDbSymbolTable
70
0
0
ENDTAB
0
TABLE
2
UCS
5
7
100
AcDbSymbolTable
70
0
0
ENDTAB
0
TABLE
2
APPID
5
9
100
AcDbSymbolTable
70
2
0
APPID
5
12
100
AcDbSymbolTableRecord
100
AcDbRegAppTableRecord
2
ACAD
70
0
0
ENDTAB
0
TABLE
2
DIMSTYLE
5
A
100
AcDbSymbolTable
70
1
0
ENDTAB
0
TABLE
2
BLOCK_RECORD
5
1
100
AcDbSymbolTable
70
1
0
BLOCK_RECORD
5
1F
100
AcDbSymbolTableRecord
100
AcDbBlockTableRecord
2
*MODEL_SPACE
0
BLOCK_RECORD
5
1B
100
AcDbSymbolTableRecord
100
AcDbBlockTableRecord
2
*PAPER_SPACE
0
ENDTAB
0
ENDSEC
0
SECTION
2
BLOCKS
0
BLOCK
5
20
100
AcDbEntity
100
AcDbBlockBegin
2
*MODEL_SPACE
0
ENDBLK
5
21
100
AcDbEntity
100
AcDbBlockEnd
0
BLOCK
5
1C
100
AcDbEntity
100
AcDbBlockBegin
2
*PAPER_SPACE
0
ENDBLK
5
1D
100
AcDbEntity
100
AcDbBlockEnd
0
ENDSEC
0
SECTION
2
ENTITIES
0
LWPOLYLINE
5
100
100
AcDbEntity
8
0
100
AcDbPolyline
90
32
70
1
43
0.0
10
-17.923220448682095
20
-4.9168279304541533
42
0.24473534683155823
10
-16.899180548033286
20
-5.4499999999999984
10
-4.1508194519665604
20
-5.4500000000000011
42
0.24473534683150605
10
-3.1267795513178975
20
-4.9168279304543576
10
-0.22596009934991113
20
-0.77280014193037427
42
0.1538790779585526
10
1.4232365286304116e-12
20
-0.055972211475996542
10
-9.0205620750793969e-14
20
76.255972211476163
42
0.15387907795850006
10
-0.22596009935120948
20
76.972800141930307
10
-3.1267795513180041
20
81.116827930454193
42
0.24473534683155046
10
-4.1508194519667914
20
81.650000000000034
10
-16.899180548033236
20
81.650000000000034
42
0.24473534683156697
10
-17.923220448682041
20
81.116827930454178
10
-21.049999999999951
20
76.650000000000034
42
-0.22264785814421439
10
-22.010468635614888
20
76.200000000000017
10
-168.48953136438502
20
76.199999999999974
42
-0.222647858144256
10
-169.44999999999999
20
76.650000000000034
10
-172.57677955131797
20
81.116827930454193
42
0.24473534683159601
10
-173.6008194519668
20
81.650000000000034
10
-186.34918054803336
20
81.650000000000006
42
0.24473534683154172
10
-187.37322044868205
20
81.116827930454349
10
-190.2740399006498
20
76.972800141930392
42
0.15387907795857
10
-190.50000000000111
20
76.255972211476063
10
-190.49999999999997
20
-0.055972211476165157
42
0.15387907795846242
10
-190.27403990064883
20
-0.77280014193031865
10
-187.37322044868205
20
-4.916827930454196
42
0.24473534683156825
10
-186.34918054803325
20
-5.4500000000000188
10
-173.6008194519668
20
-5.4500000000000179
42
0.24473534683156883
10
-172.576779551318
20
-4.9168279304541933
10
-169.4500000000001
20
-0.45000000000001422
42
-0.22264785814419133
10
-168.48953136438513
20
-1.27675647831893e-14
10
-22.010468635614941
20
1.3877787807814457e-16
42
-0.22264785814420926
10
-21.050000000000004
20
-0.45000000000000107
0
LWPOLYLINE
5
101
100
AcDbEntity
8
0
100
AcDbPolyline
90
14
70
1
43
0.0
10
-51.125000000000028
20
59.675000000000018
10
-54.125000000000014
20
59.675000000000018
42
-0.41421356237309503
10
-54.625000000000014
20
60.175000000000018
10
-54.625000000000021
20
73.175000000000011
42
-0.41421356237309503
10
-54.125000000000014
20
73.675000000000011
10
-41.125000000000028
20
73.675000000000011
42
-0.41421356237309503
10
-40.625000000000014
20
73.175000000000011
10
-40.625000000000014
20
60.175000000000018
42
-0.41421356237309503
10
-41.125000000000028
20
59.675000000000011
10
-44.125000000000014
20
59.675000000000018
10
-44.125000000000014
20
59.175000000000026
42
-0.41421356237309503
10
-44.625000000000021
20
58.675000000000011
10
-50.625000000000014
20
58.675000000000033
42
-0.41421356237309503
10
-51.125000000000007
20
59.175000000000026
0
LWPOLYLINE
5
102
100
AcDbEntity
8
0
100
AcDbPolyline
90
8
70
1
43
0.0
10
-35.574999999999974
20
41.125000000000007
42
0.41421356237309503
10
-35.074999999999989
20
40.625000000000014
10
-22.074999999999996
20
40.625
42
0.41421356237309503
10
-21.574999999999989
20
41.125000000000007
10
-21.574999999999989
20
54.125000000000014
42
0.41421356237309503
10
-22.074999999999996
20
54.625000000000021
10
-35.075000000000003
20
54.625000000000021
42
0.41421356237309503
10
-35.57500000000001
20
54.125000000000014
0
CIRCLE
5
103
100
AcDbEntity
8
0
100
AcDbCircle
10
-179.97500000000002
20
-2.7000000000000188
30
0
40
1.2750000000000128
210
0
220
0
230
1
0
LWPOLYLINE
5
104
100
AcDbEntity
8
0
100
AcDbPolyline
90
8
70
1
43
0.0
10
-83.200000000000045
20
60.175000000000018
10
-83.200000000000045
20
73.175000000000011
42
-0.41421356237309503
10
-82.699999999999989
20
73.675000000000054
10
-69.700000000000017
20
73.675000000000011
42
-0.41421356237309503
10
-69.200000000000017
20
73.175000000000011
10
-69.200000000000017
20
60.174999999999997
42
-0.4142135623730846
10
-69.700000000000017
20
59.675000000000011
10
-82.699999999999989
20
59.674999999999976
42
-0.41421356237309503
0
LWPOLYLINE
5
105
100
AcDbEntity
8
0
100
AcDbPolyline
90
14
70
1
43
0.0
10
-84.637999999999991
20
73.175000000000011
42
0.41421356237309503
10
-85.138000000000005
20
73.675000000000011
10
-105.36200000000005
20
73.674999999999983
42
0.41421356237309503
10
-105.86200000000002
20
73.175000000000011
10
-105.86200000000004
20
59.175000000000004
42
0.41421356237309503
10
-105.36200000000005
20
58.675000000000011
10
-99.362000000000023
20
58.674999999999997
42
0.41421356237309503
10
-98.862000000000023
20
59.175000000000004
10
-98.862000000000023
20
59.675000000000011
10
-91.637999999999977
20
59.675000000000011
10
-91.638000000000005
20
59.175000000000004
42
0.41421356237309503
10
-91.138000000000005
20
58.675000000000011
10
-85.138000000000005
20
58.675000000000033
42
0.41421356237309503
10
-84.638000000000034
20
59.175000000000004
0
LWPOLYLINE
5
106
100
AcDbEntity
8
0
100
AcDbPolyline
90
8
70
1
43
0.0
10
-61.262000000000008
20
58.675000000000054
42
0.4142135623730846
10
-60.762000000000036
20
59.175000000000004
10
-60.762
20
73.175000000000011
42
0.41421356237309503
10
-61.262000000000008
20
73.675000000000011
10
-67.262000000000029
20
73.675000000000011
42
0.41421356237309503
10
-67.762000000000029
20
73.175000000000011
10
-67.762000000000029
20
59.175000000000026
42
0.41421356237309503
10
-67.262000000000029
20
58.675000000000011
0
LWPOLYLINE
5
107
100
AcDbEntity
8
0
100
AcDbPolyline
90
8
70
1
43
0.0
10
-129.738
20
59.175000000000004
10
-129.738
20
73.174999999999983
42
-0.41421356237309503
10
-129.238
20
73.674999999999997
10
-123.23800000000003
20
73.674999999999997
42
-0.41421356237309503
10
-122.73800000000001
20
73.174999999999983
10
-122.73800000000001
20
59.175000000000004
42
-0.41421356237309503
10
-123.23800000000003
20
58.674999999999997
10
-129.238
20
58.674999999999997
42
-0.41421356237309503
0
LWPOLYLINE
5
108
100
AcDbEntity
8
0
100
AcDbPolyline
90
14
70
1
43
0.0
10
-146.375
20
59.675000000000011
10
-149.37500000000003
20
59.675000000000011
42
-0.41421356237309503
10
-149.87500000000003
20
60.174999999999997
10
-149.875
20
73.174999999999983
42
-0.41421356237309503
10
-149.37500000000003
20
73.674999999999955
10
-136.375
20
73.674999999999997
42
-0.41421356237309503
10
-135.875
20
73.174999999999983
10
-135.87500000000003
20
60.174999999999983
42
-0.4142135623730846
10
-136.375
20
59.675000000000026
10
-139.375
20
59.675000000000011
10
-139.375
20
59.174999999999983
42
-0.41421356237309503
10
-139.875
20
58.674999999999983
10
-145.87500000000003
20
58.674999999999997
42
-0.41421356237309503
10
-146.375
20
59.174999999999983
0
CIRCLE
5
109
100
AcDbEntity
8
0
100
AcDbCircle
10
-179.97500000000002
20
78.899999999999991
30
0
40
1.2750000000000128
210
0
220
0
230
1
0
CIRCLE
5
110
100
AcDbEntity
8
0
100
AcDbCircle
10
-10.524999999999975
20
78.900000000000006
30
0
40
1.2749999999999995
210
0
220
0
230
1
0
CIRCLE
5
111
100
AcDbEntity
8
0
100
AcDbCircle
10
-10.525000000000002
20
-2.7000000000000011
30
0
40
1.2749999999999995
210
0
220
0
230
1
0
LWPOLYLINE
5
112
100
AcDbEntity
8
0
100
AcDbPolyline
90
8
70
1
43
0.0
10
-22.074999999999996
20
2.5250000000000306
10
-35.074999999999989
20
2.5250000000000128
42
-0.41421356237309503
10
-35.574999999999989
20
3.0250000000000199
10
-35.574999999999989
20
16.025000000000027
42
-0.41421356237309503
10
-35.074999999999989
20
16.525000000000034
10
-22.074999999999996
20
16.525000000000016
42
-0.41421356237309503
10
-21.575000000000006
20
16.025000000000027
10
-21.575000000000006
20
3.0250000000000199
42
-0.41421356237309503
0
LWPOLYLINE
5
113
100
AcDbEntity
8
0
100
AcDbPolyline
90
8
70
1
43
0.0
10
-117.32500000000002
20
2.5250000000000128
42
0.41421356237309503
10
-116.82500000000002
20
3.0250000000000199
10
-116.82500000000003
20
16.025000000000009
42
0.41421356237309503
10
-117.32500000000002
20
16.524999999999999
10
-130.32500000000002
20
16.524999999999981
42
0.41421356237309503
10
-130.82499999999999
20
16.025000000000009
10
-130.82500000000005
20
3.0250000000000199
42
0.41421356237309503
10
-130.32500000000002
20
2.5250000000000128
0
LWPOLYLINE
5
114
100
AcDbEntity
8
0
100
AcDbPolyline
90
8
70
1
43
0.0
10
-136.375
20
2.5250000000000128
10
-149.375
20
2.5250000000000128
42
-0.41421356237309503
10
-149.875
20
3.0250000000000021
10
-149.875
20
16.025000000000009
42
-0.41421356237307422
10
-149.37500000000003
20
16.525000000000016
10
-136.375
20
16.524999999999999
42
-0.41421356237309503
10
-135.875
20
16.025000000000009
10
-135.875
20
3.0250000000000199
42
-0.41421356237310542
0
LWPOLYLINE
5
115
100
AcDbEntity
8
0
100
AcDbPolyline
90
8
70
1
43
0.0
10
-187.47500000000002
20
16.524999999999999
10
-174.47500000000002
20
16.524999999999999
42
-0.41421356237309503
10
-173.97500000000002
20
16.024999999999991
10
-173.97500000000002
20
3.0250000000000021
42
-0.41421356237309503
10
-174.47500000000002
20
2.524999999999995
10
-187.47500000000002
20
2.524999999999995
42
-0.41421356237309503
10
-187.97500000000002
20
3.0250000000000021
10
-187.97500000000002
20
16.024999999999991
42
-0.41421356237309503
0
LWPOLYLINE
5
116
100
AcDbEntity
8
0
100
AcDbPolyline
90
8
70
1
43
0.0
10
-155.42500000000001
20
2.524999999999995
42
0.41421356237309503
10
-154.92500000000001
20
3.0250000000000021
10
-154.92500000000001
20
16.025000000000009
42
0.41421356237309503
10
-155.42500000000001
20
16.524999999999999
10
-168.42500000000001
20
16.525000000000016
42
0.41421356237309503
10
-168.92500000000001
20
16.025000000000009
10
-168.92499999999998
20
3.0250000000000021
42
0.41421356237309503
10
-168.42500000000001
20
2.5250000000000128
0
LWPOLYLINE
5
117
100
AcDbEntity
8
0
100
AcDbPolyline
90
8
70
1
43
0.0
10
-73.174999999999983
20
54.625000000000057
42
0.41421356237309503
10
-73.67500000000004
20
54.125000000000014
10
-73.674999999999983
20
41.125000000000007
42
0.41421356237309503
10
-73.174999999999983
20
40.625000000000014
10
-60.175000000000018
20
40.625
42
0.41421356237309503
10
-59.675000000000011
20
41.125000000000007
10
-59.675000000000011
20
54.125000000000014
42
0.41421356237309503
10
-60.175000000000018
20
54.625000000000021
0
LWPOLYLINE
5
118
100
AcDbEntity
8
0
100
AcDbPolyline
90
8
70
1
43
0.0
10
-168.42500000000001
20
35.57500000000001
42
0.41421356237309503
10
-168.92500000000001
20
35.075000000000003
10
-168.92500000000001
20
22.074999999999996
42
0.41421356237309503
10
-168.42500000000001
20
21.574999999999989
10
-155.42500000000001
20
21.574999999999989
42
0.41421356237309503
10
-154.92500000000001
20
22.074999999999996
10
-154.92500000000001
20
35.075000000000003
42
0.41421356237309503
10
-155.42500000000001
20
35.57500000000001
0
LWPOLYLINE
5
119
100
AcDbEntity
8
0
100
AcDbPolyline
90
8
70
1
43
0.0
10
-40.625
20
16.025000000000027
10
-40.625
20
3.0250000000000199
42
-0.41421356237309503
10
-41.125000000000007
20
2.5250000000000128
10
-54.124999999999979
20
2.5250000000000128
42
-0.41421356237309503
10
-54.624999999999986
20
3.0250000000000199
10
-54.625000000000021
20
16.025000000000027
42
-0.41421356237309503
10
-54.124999999999979
20
16.52500000000007
10
-41.125000000000007
20
16.525000000000034
42
-0.41421356237309503
0
LWPOLYLINE
5
120
100
AcDbEntity
8
0
100
AcDbPolyline
90
8
70
1
43
0.0
10
-3.0250000000000199
20
2.5250000000000128
42
0.41421356237309503
10
-2.5250000000000128
20
3.0250000000000199
10
-2.5250000000000306
20
16.025000000000027
42
0.41421356237309503
10
-3.0250000000000199
20
16.525000000000016
10
-16.024999999999991
20
16.525000000000034
42
0.41421356237309503
10
-16.524999999999999
20
16.025000000000027
10
-16.524999999999999
20
3.0250000000000199
42
0.41421356237309503
10
-16.024999999999991
20
2.5250000000000128
0
LWPOLYLINE
5
121
100
AcDbEntity
8
0
100
AcDbPolyline
90
8
70
1
43
0.0
10
-174.47500000000002
20
21.574999999999989
42
0.41421356237309503
10
-173.97500000000002
20
22.074999999999996
10
-173.97500000000002
20
35.075000000000003
42
0.41421356237309503
10
-174.47500000000002
20
35.57500000000001
10
-187.47500000000002
20
35.57500000000001
42
0.41421356237309503
10
-187.97500000000002
20
35.075000000000003
10
-187.97499999999999
20
22.074999999999996
42
0.41421356237309503
10
-187.47500000000002
20
21.575000000000006
0
LWPOLYLINE
5
122
100
AcDbEntity
8
0
100
AcDbPolyline
90
8
70
1
43
0.0
10
-111.27500000000001
20
35.57500000000001
10
-98.275000000000006
20
35.57500000000001
42
-0.41421356237309503
10
-97.775000000000006
20
35.075000000000003
10
-97.775000000000006
20
22.074999999999996
42
-0.41421356237309503
10
-98.275000000000006
20
21.574999999999989
10
-111.27500000000001
20
21.575000000000006
42
-0.41421356237309503
10
-111.77500000000001
20
22.074999999999996
10
-111.77500000000002
20
35.075000000000003
42
-0.41421356237309503
0
LWPOLYLINE
5
123
100
AcDbEntity
8
0
100
AcDbPolyline
90
8
70
1
43
0.0
10
-149.37500000000003
20
35.57500000000001
10
-136.375
20
35.57500000000001
42
-0.41421356237309503
10
-135.875
20
35.075000000000003
10
-135.87500000000003
20
22.074999999999996
42
-0.41421356237309503
10
-136.375
20
21.575000000000024
10
-149.37500000000003
20
21.575000000000006
42
-0.41421356237309503
10
-149.87500000000003
20
22.074999999999996
10
-149.87500000000006
20
35.075000000000003
42
-0.41421356237309503
0
LWPOLYLINE
5
124
100
AcDbEntity
8
0
100
AcDbPolyline
90
8
70
1
43
0.0
10
-3.0250000000000199
20
21.575000000000024
10
-16.024999999999991
20
21.575000000000024
42
-0.41421356237309503
10
-16.524999999999981
20
22.075000000000014
10
-16.524999999999999
20
35.075000000000017
42
-0.41421356237309503
10
-16.024999999999991
20
35.575000000000031
10
-3.0250000000000199
20
35.575000000000045
42
-0.41421356237309503
10
-2.5250000000000128
20
35.075000000000038
10
-2.5250000000000128
20
22.075000000000031
42
-0.41421356237309503
0
LWPOLYLINE
5
125
100
AcDbEntity
8
0
100
AcDbPolyline
90
8
70
1
43
0.0
10
-116.82500000000002
20
35.075000000000003
10
-116.82500000000002
20
22.074999999999996
42
-0.41421356237309503
10
-117.32500000000002
20
21.574999999999989
10
-130.32500000000002
20
21.575000000000006
42
-0.41421356237309503
10
-130.82500000000002
20
22.074999999999996
10
-130.82499999999999
20
35.075000000000003
42
-0.41421356237309503
10
-130.32500000000002
20
35.574999999999974
10
-117.32500000000002
20
35.57500000000001
42
-0.41421356237309503
0
LWPOLYLINE
5
126
100
AcDbEntity
8
0
100
AcDbPolyline
90
8
70
1
43
0.0
10
-187.97500000000002
20
41.125000000000007
10
-187.97500000000002
20
54.125000000000014
42
-0.41421356237309503
10
-187.47500000000002
20
54.625000000000021
10
-174.47500000000002
20
54.625000000000021
42
-0.41421356237309503
10
-173.97500000000002
20
54.125000000000014
10
-173.97500000000002
20
41.125000000000007
42
-0.41421356237309503
10
-174.47500000000002
20
40.625
10
-187.47500000000002
20
40.625
42
-0.41421356237309503
0
LWPOLYLINE
5
127
100
AcDbEntity
8
0
100
AcDbPolyline
90
8
70
1
43
0.0
10
-154.92500000000001
20
54.125000000000014
42
0.41421356237309503
10
-155.42500000000001
20
54.625
10
-168.42500000000001
20
54.625000000000021
42
0.41421356237309503
10
-168.92500000000001
20
54.125000000000014
10
-168.92500000000001
20
41.125000000000007
42
0.41421356237309503
10
-168.42500000000001
20
40.625
10
-155.42500000000001
20
40.625
42
0.41421356237309503
10
-154.92500000000001
20
41.125000000000007
0
LWPOLYLINE
5
128
100
AcDbEntity
8
0
100
AcDbPolyline
90
8
70
1
43
0.0
10
-78.724999999999994
20
35.075000000000017
10
-78.724999999999994
20
22.075000000000014
42
-0.41421356237309503
10
-79.224999999999994
20
21.575000000000006
10
-92.224999999999994
20
21.575000000000006
42
-0.41421356237309503
10
-92.724999999999994
20
22.074999999999996
10
-92.725000000000009
20
35.075000000000003
42
-0.41421356237309503
10
-92.224999999999994
20
35.57500000000001
10
-79.224999999999994
20
35.575000000000031
42
-0.41421356237309503
0
LWPOLYLINE
5
129
100
AcDbEntity
8
0
100
AcDbPolyline
90
8
70
1
43
0.0
10
-135.87500000000003
20
54.125000000000014
10
-135.87500000000003
20
41.125000000000007
42
-0.41421356237309503
10
-136.375
20
40.625000000000036
10
-149.37500000000003
20
40.625
42
-0.41421356237309503
10
-149.87500000000006
20
41.125000000000007
10
-149.875
20
54.125000000000014
42
-0.41421356237309503
10
-149.37500000000003
20
54.624999999999986
10
-136.375
20
54.624999999999986
42
-0.41421356237309503
0
LWPOLYLINE
5
130
100
AcDbEntity
8
0
100
AcDbPolyline
90
8
70
1
43
0.0
10
-107.80000000000001
20
59.675000000000011
10
-120.80000000000001
20
59.675000000000011
42
-0.41421356237309503
10
-121.30000000000001
20
60.174999999999997
10
-121.29999999999998
20
73.174999999999983
42
-0.41421356237309503
10
-120.80000000000001
20
73.674999999999955
10
-107.80000000000001
20
73.675000000000011
42
-0.41421356237309503
10
-107.30000000000001
20
73.175000000000011
10
-107.30000000000001
20
60.175000000000018
42
-0.41421356237309503
0
LWPOLYLINE
5
131
100
AcDbEntity
8
0
100
AcDbPolyline
90
8
70
1
43
0.0
10
-54.625000000000021
20
22.075000000000014
10
-54.625000000000021
20
35.075000000000017
42
-0.41421356237309503
10
-54.124999999999979
20
35.57500000000006
10
-41.125000000000007
20
35.57500000000001
42
-0.41421356237309503
10
-40.625000000000014
20
35.075000000000017
10
-40.625
20
22.075000000000014
42
-0.41421356237309503
10
-41.125000000000007
20
21.575000000000006
10
-54.124999999999979
20
21.574999999999971
42
-0.41421356237309503
0
LWPOLYLINE
5
132
100
AcDbEntity
8
0
100
AcDbPolyline
90
8
70
1
43
0.0
10
-21.574999999999989
20
35.075000000000017
42
0.41421356237309503
10
-22.074999999999996
20
35.575000000000031
10
-35.074999999999989
20
35.575000000000031
42
0.41421356237309503
10
-35.574999999999989
20
35.075000000000017
10
-35.574999999999974
20
22.075000000000014
42
0.41421356237309503
10
-35.074999999999989
20
21.575000000000024
10
-22.074999999999996
20
21.575000000000006
42
0.41421356237309503
10
-21.574999999999989
20
22.075000000000014
0
LWPOLYLINE
5
133
100
AcDbEntity
8
0
100
AcDbPolyline
90
8
70
1
43
0.0
10
-73.674999999999997
20
22.075000000000014
10
-73.674999999999997
20
35.075000000000017
42
-0.41421356237309503
10
-73.174999999999983
20
35.575000000000031
10
-60.175000000000018
20
35.57500000000001
42
-0.41421356237309503
10
-59.675000000000026
20
35.075000000000017
10
-59.675000000000011
20
22.075000000000014
42
-0.41421356237309503
10
-60.175000000000018
20
21.575000000000006
10
-73.174999999999983
20
21.575000000000006
42
-0.41421356237309503
0
LWPOLYLINE
5
134
100
AcDbEntity
8
0
100
AcDbPolyline
90
8
70
1
43
0.0
10
-117.32500000000002
20
40.625
10
-130.32500000000002
20
40.625
42
-0.41421356237309503
10
-130.82500000000005
20
41.125000000000007
10
-130.82499999999999
20
54.125000000000014
42
-0.41421356237309503
10
-130.32500000000002
20
54.624999999999986
10
-117.32500000000002
20
54.625000000000021
42
-0.41421356237309503
10
-116.82500000000002
20
54.125000000000014
10
-116.82500000000002
20
41.125000000000007
42
-0.41421356237309503
0
LWPOLYLINE
5
135
100
AcDbEntity
8
0
100
AcDbPolyline
90
8
70
1
43
0.0
10
-3.0250000000000199
20
40.625000000000036
10
-16.024999999999991
20
40.625000000000014
42
-0.41421356237309503
10
-16.524999999999981
20
41.125000000000007
10
-16.524999999999999
20
54.125000000000014
42
-0.41421356237309503
10
-16.024999999999991
20
54.625000000000021
10
-3.0250000000000199
20
54.625000000000021
42
-0.41421356237309503
10
-2.5250000000000306
20
54.125000000000028
10
-2.5250000000000306
20
41.125000000000028
42
-0.41421356237309503
0
LWPOLYLINE
5
136
100
AcDbEntity
8
0
100
AcDbPolyline
90
8
70
1
43
0.0
10
-98.275000000000006
20
40.625
10
-111.27500000000001
20
40.625
42
-0.41421356237309503
10
-111.77500000000002
20
41.125000000000007
10
-111.77500000000002
20
54.125000000000014
42
-0.41421356237309503
10
-111.27500000000001
20
54.625000000000021
10
-98.275000000000034
20
54.625000000000021
42
-0.41421356237309503
10
-97.775000000000034
20
54.125000000000014
10
-97.775000000000006
20
41.125000000000007
42
-0.41421356237309503
0
LWPOLYLINE
5
137
100
AcDbEntity
8
0
100
AcDbPolyline
90
8
70
1
43
0.0
10
-79.224999999999994
20
40.625
42
0.41421356237309503
10
-78.724999999999994
20
41.125000000000007
10
-78.725000000000023
20
54.125000000000014
42
0.41421356237309503
10
-79.225000000000023
20
54.625000000000021
10
-92.224999999999994
20
54.625000000000021
42
0.41421356237309503
10
-92.725000000000009
20
54.125000000000014
10
-92.725000000000009
20
41.125000000000007
42
0.41421356237309503
10
-92.224999999999994
20
40.625
0
LWPOLYLINE
5
138
100
AcDbEntity
8
0
100
AcDbPolyline
90
8
70
1
43
0.0
10
-54.625000000000021
20
41.125000000000007
10
-54.625000000000021
20
54.125000000000014
42
-0.41421356237309503
10
-54.125000000000014
20
54.625000000000021
10
-41.125000000000028
20
54.625000000000021
42
-0.41421356237309503
10
-40.625000000000014
20
54.125000000000014
10
-40.625
20
41.125000000000007
42
-0.41421356237309503
10
-41.125000000000007
20
40.625
10
-54.124999999999979
20
40.624999999999964
42
-0.41421356237309503
0
LWPOLYLINE
5
139
100
AcDbEntity
8
0
100
AcDbPolyline
90
8
70
1
43
0.0
10
-73.174999999999983
20
16.525000000000016
42
0.41421356237309503
10
-73.674999999999997
20
16.025000000000009
10
-73.674999999999997
20
3.0250000000000199
42
0.41421356237309503
10
-73.174999999999983
20
2.5250000000000128
10
-60.175000000000018
20
2.5250000000000128
42
0.41421356237309503
10
-59.675000000000011
20
3.0250000000000199
10
-59.675000000000026
20
16.025000000000027
42
0.41421356237309503
10
-60.175000000000018
20
16.525000000000016
0
LWPOLYLINE
5
140
100
AcDbEntity
8
0
100
AcDbPolyline
90
8
70
1
43
0.0
10
-92.725000000000009
20
3.0250000000000199
42
0.41421356237309503
10
-92.224999999999994
20
2.5250000000000128
10
-79.224999999999994
20
2.5250000000000128
42
0.41421356237309503
10
-78.724999999999994
20
3.0250000000000199
10
-78.724999999999994
20
16.025000000000009
42
0.41421356237309503
10
-79.224999999999994
20
16.525000000000016
10
-92.224999999999994
20
16.525000000000016
42
0.41421356237309503
10
-92.725000000000009
20
16.025000000000009
0
LWPOLYLINE
5
141
100
AcDbEntity
8
0
100
AcDbPolyline
90
8
70
1
43
0.0
10
-97.775000000000006
20
16.025000000000009
42
0.41421356237309503
10
-98.275000000000006
20
16.525000000000016
10
-111.27500000000001
20
16.525000000000016
42
0.41421356237309503
10
-111.77500000000002
20
16.025000000000009
10
-111.77500000000002
20
3.0250000000000199
42
0.41421356237309503
10
-111.27500000000001
20
2.5250000000000128
10
-98.275000000000006
20
2.5250000000000128
42
0.41421356237309503
10
-97.775000000000006
20
3.0250000000000199
0
ENDSEC
0
SECTION
2
OBJECTS
0
DICTIONARY
5
C
100
AcDbDictionary
3
ACAD_GROUP
350
D
3
ACAD_MLINESTYLE
350
17
0
DICTIONARY
5
D
100
AcDbDictionary
0
DICTIONARY
5
1A
330
C
100
AcDbDictionary
0
DICTIONARY
5
17
100
AcDbDictionary
0
ENDSEC
0
EOF
